<svg id="Layer_1" enable-background="new 0 0 512.032 512.032" height="512" viewBox="0 0 512.032 512.032" width="512" xmlns="http://www.w3.org/2000/svg"><g><path d="m41.736 62.899c-26.25 31.48-32.436 75.443-16.058 112.999l-2.125 2.125c-5.858 5.858-5.858 15.355 0 21.213 2.929 2.929 6.768 4.394 10.606 4.394s20.344-14.131 20.344-14.131c.003-.003 127.599-127.599 127.602-127.602l9.738-9.738c5.858-5.858 5.858-15.355 0-21.213-5.857-5.858-15.355-5.858-21.213 0l-2.125 2.125c-34.285-14.951-73.906-11.089-104.501 9.67l-38.348-38.347c-5.857-5.858-15.355-5.858-21.213 0s-5.858 15.355 0 21.213z"/><path d="m339.016 423.033c8.284 0 15-6.716 15-15v-30h-196v30c0 8.284 6.716 15 15 15z"/><path d="m497.016 288.033h-74c-8.25 0-15 6.75-15 15 0-8.261-6.738-15-15-15h-246c-8.261 0-14.999 6.738-15 14.999 0-8.249-6.75-14.999-15-14.999h-102c-8.25 0-15 6.75-15 15v30.001c0 8.284 6.716 15 15 15h482c8.284 0 15-6.716 15-15v-30.001c0-8.25-6.75-15-15-15z"/><path d="m378.509 482.032h-67.493v-29h-110v29h-74.506c-8.284 0-15 6.716-15 15s6.716 15 15 15h251.999c8.284 0 15-6.716 15-15s-6.715-15-15-15z"/></g></svg>